<svg width="136" height="136" viewBox="0 0 136 136" fill="none" xmlns="http://www.w3.org/2000/svg">
<path d="M68 0.03125C30.5 0.03125 0.03125 30.5 0.03125 68C0.03125 105.5 30.5 135.969 68 135.969C105.5 135.969 135.969 105.5 135.969 68C135.969 30.5 105.5 0.03125 68 0.03125ZM68 7.0625C101.633 7.0625 128.938 34.3672 128.938 68C128.938 101.633 101.633 128.938 68 128.938C34.3672 128.938 7.0625 101.633 7.0625 68C7.0625 34.3672 34.3672 7.0625 68 7.0625ZM92.6529 50.3624C91.7593 50.3917 90.852 50.7739 90.1489 51.477L65.6562 76.9058L52.8824 63.1958C51.5933 61.7895 49.3676 61.671 47.9614 62.96C46.5551 64.2491 46.4366 66.477 47.7256 67.8833L63.079 84.4062C63.7822 85.1094 64.6016 85.5781 65.6562 85.5781C66.5938 85.5781 67.5303 85.2261 68.2335 84.523L95.1866 56.2812C96.4756 54.875 96.4761 52.6494 95.0699 51.3603C94.4253 50.6572 93.5464 50.3331 92.6529 50.3624Z" fill="#156A0A"/>
</svg>
