<?xml version="1.0" standalone="no"?>
<!DOCTYPE svg PUBLIC "-//W3C//DTD SVG 20010904//EN"
 "http://www.w3.org/TR/2001/REC-SVG-20010904/DTD/svg10.dtd">
<svg version="1.0" xmlns="http://www.w3.org/2000/svg"
 width="256.000000pt" height="250.000000pt" viewBox="0 0 256.000000 250.000000"
 preserveAspectRatio="xMidYMid meet">

<g transform="translate(0.000000,250.000000) scale(0.100000,-0.100000)"
fill="#000000" stroke="none">
<path d="M460 1542 c0 -12 49 -56 55 -50 7 7 -34 58 -46 58 -5 0 -9 -4 -9 -8z"/>
<path d="M640 1528 c-47 -24 -84 -75 -77 -105 3 -14 7 -11 16 12 50 123 217
120 251 -5 12 -45 -3 -91 -45 -142 -14 -16 -25 -38 -25 -49 0 -12 -7 -19 -20
-19 -18 0 -20 7 -20 65 0 65 0 66 30 72 56 11 39 18 -41 18 -83 0 -103 -8 -44
-19 l35 -7 0 -64 c0 -63 -1 -65 -25 -65 -18 0 -25 5 -25 19 0 10 -16 38 -35
62 -19 24 -35 50 -35 57 0 6 -4 12 -10 12 -19 0 -10 -29 24 -73 19 -25 36 -56
38 -69 3 -22 7 -23 73 -23 l69 0 7 33 c4 18 13 38 21 45 52 42 65 135 28 195
-21 34 -87 71 -125 72 -12 0 -41 -10 -65 -22z"/>
<path d="M920 1525 c-13 -14 -20 -28 -17 -32 8 -7 57 35 57 49 0 15 -16 8 -40
-17z"/>
<path d="M440 1400 c0 -5 18 -10 40 -10 22 0 40 5 40 10 0 6 -18 10 -40 10
-22 0 -40 -4 -40 -10z"/>
<path d="M900 1400 c0 -5 16 -10 35 -10 19 0 35 5 35 10 0 6 -16 10 -35 10
-19 0 -35 -4 -35 -10z"/>
<path d="M481 1286 c-12 -13 -18 -27 -13 -30 9 -5 30 14 46 42 12 21 -9 13
-33 -12z"/>
<path d="M900 1302 c0 -5 11 -19 25 -32 19 -18 25 -20 25 -8 0 8 -8 22 -18 31
-20 19 -32 22 -32 9z"/>
<path d="M1628 1195 c3 -39 0 -70 -7 -78 -14 -18 -4 -27 30 -27 28 0 29 1 22
46 -5 38 -3 46 8 42 9 -4 13 -19 12 -47 -2 -39 -1 -41 28 -41 29 0 30 1 23 38
-13 70 -22 85 -49 80 -22 -5 -25 -2 -25 23 0 24 -4 29 -23 29 -22 0 -23 -3
-19 -65z"/>
<path d="M1840 1252 c0 -4 5 -13 11 -19 8 -8 8 -28 1 -70 -11 -67 -10 -73 23
-73 26 0 46 21 27 28 -8 2 -12 29 -12 73 0 67 -1 69 -25 69 -14 0 -25 -4 -25
-8z"/>
<path d="M2038 1188 c2 -40 5 -78 7 -84 4 -12 74 -12 94 0 15 10 14 68 -3 91
-8 12 -20 16 -35 12 -18 -4 -21 -1 -21 24 0 24 -4 29 -23 29 -22 0 -23 -3 -19
-72z m72 -38 c0 -20 -5 -30 -15 -30 -10 0 -15 10 -15 30 0 20 5 30 15 30 10 0
15 -10 15 -30z"/>
<path d="M1120 1225 c0 -25 14 -33 25 -15 3 6 11 10 17 10 7 0 9 -22 6 -65
l-6 -65 29 0 c29 0 46 14 29 25 -13 8 -13 105 -1 105 6 0 13 -4 16 -10 11 -18
25 -10 25 15 0 24 -2 25 -70 25 -68 0 -70 -1 -70 -25z"/>
<path d="M1283 1198 c-42 -54 -4 -122 57 -103 28 9 25 25 -5 25 -14 0 -25 5
-25 10 0 6 14 10 30 10 23 0 30 5 30 19 0 41 -64 69 -87 39z m47 -28 c0 -5 -7
-10 -15 -10 -8 0 -15 5 -15 10 0 6 7 10 15 10 8 0 15 -4 15 -10z"/>
<path d="M1393 1195 c-8 -21 3 -30 20 -17 8 7 17 9 20 5 13 -12 7 -23 -12 -23
-28 0 -47 -28 -34 -48 7 -12 25 -17 57 -18 45 -1 67 8 46 21 -5 3 -10 21 -10
39 0 17 -5 37 -12 44 -17 17 -67 15 -75 -3z m52 -65 c-3 -5 -10 -10 -16 -10
-5 0 -9 5 -9 10 0 6 7 10 16 10 8 0 12 -4 9 -10z"/>
<path d="M1514 1184 c-23 -34 -9 -75 29 -88 23 -8 31 -6 50 13 l22 22 -35 -3
c-27 -2 -35 1 -38 15 -2 10 2 25 9 33 12 14 14 14 26 -2 10 -14 16 -15 25 -6
17 17 -8 42 -43 42 -20 0 -34 -8 -45 -26z"/>
<path d="M1923 1195 c-8 -23 5 -31 26 -18 18 12 31 8 31 -9 0 -4 -11 -8 -24
-8 -33 0 -50 -23 -37 -48 8 -15 20 -19 55 -18 24 0 47 3 50 6 8 9 -14 94 -27
102 -21 13 -67 9 -74 -7z m57 -65 c0 -5 -7 -10 -15 -10 -8 0 -15 5 -15 10 0 6
7 10 15 10 8 0 15 -4 15 -10z"/>
<path d="M641 1166 c-7 -8 -11 -25 -9 -38 3 -22 8 -23 73 -23 l70 0 0 35 0 35
-61 3 c-44 2 -64 -1 -73 -12z m119 -26 c0 -18 -7 -20 -55 -20 -48 0 -55 2 -55
20 0 18 7 20 55 20 48 0 55 -2 55 -20z"/>
<path d="M1767 1174 c-15 -16 -5 -24 29 -24 24 0 34 4 32 13 -5 13 -50 22 -61
11z"/>
<path d="M489 1051 c-47 -47 -34 -117 26 -146 26 -12 72 -15 218 -15 102 0
192 3 201 6 18 7 22 49 6 59 -14 8 -13 51 2 74 6 10 8 26 5 35 -6 14 -31 16
-217 16 l-212 0 -29 -29z m441 -1 c0 -6 -33 -10 -80 -10 -47 0 -80 -4 -80 -10
0 -6 30 -10 70 -10 l70 0 0 -30 0 -30 -187 2 c-175 3 -188 4 -191 22 -6 29 16
36 116 36 60 0 91 4 87 10 -3 6 -48 10 -100 10 -101 0 -125 -10 -125 -54 0
-43 13 -46 223 -46 154 0 198 -3 195 -12 -4 -10 -51 -14 -184 -16 -196 -3
-215 -1 -244 28 -26 26 -25 60 1 94 l20 26 205 0 c129 0 204 -4 204 -10z"/>
</g>
</svg>
